#!OML:ASF F:\VICON\USERDATA\INSTALL\rory3\rory3.ASF
:FULLY-SPECIFIED
:DEGREES
190
root 0.4166579908950492 17.82064576464473 64.40688461570764 -1.591073447369851 -0.37723809591487634 -3.597587496137307
lfemur -13.370379884283864 -3.042892087627536 -17.13931002289117
ltibia 27.661592812798133
lfoot 10.381702154852752 -9.804199096217065
ltoes -3.645978888897713
rfemur -16.02546012880884 3.2757467981336643 27.33716311420332
rtibia 35.683813052309524
rfoot -8.086341429383207 -11.847681704488375
rtoes 2.689612483184519
lowerback 11.9144571826481 0.36809335090811535 2.635136132173375
upperback 0.15403439387929752 1.1601220806089592 2.372434770891666
thorax -6.3804688061168715 0.5284156195575922 0.25502306487199244
lowerneck -16.30249592385184 -3.1216189432154846 -3.2931301466537795
upperneck 22.189654785703144 -3.8466415667835423 1.7499083266552062
head 9.68451802312864 -1.8561735727106448 0.7745614198202325
lclavicle -2.027768890644011e-15 -7.125893844902622e-16
lhumerus -33.62712787683379 2.5600811100865726 80.42559481004407
lradius 27.471541364485606
lwrist 7.904176303736998
lhand -29.598013940127597 19.753280089954046
lfingers 7.12502
lthumb -2.913333811753429 49.98235901400972
rclavicle -2.0280488082082868e-15 -7.127496675100083e-16
rhumerus -29.706455162931913 -20.830977920306637 -76.14603102730091
rradius 20.989955311975685
rwrist 4.92125381080669
rhand -16.851367009831034 21.45652868361452
rfingers 7.12502
rthumb 8.538476725712144 -7.035265968312196
191
root 0.42081849423784384 17.822869855103395 64.35711957292295 -1.5117461932065366 -0.3501996701525714 -3.468261074309776
lfemur -13.393043125073703 -3.048454450480027 -17.25376187191128
ltibia 27.013066552483302
lfoot 10.561530167558056 -10.68376566198695
ltoes -3.3384077673898496
rfemur -15.386892772801861 3.5809005676978996 27.170669644803343
rtibia 35.01057361147558
rfoot -8.55740977367627 -11.378084084504492
rtoes 1.8692724787315873
lowerback 11.782775128083646 0.41398100598431253 2.6100854049097175
upperback 0.14110360519951975 1.2375469977095561 2.3157017652819296
thorax -6.347123971306603 0.5646947716844479 0.16621977373321584
lowerneck -16.316616611777597 -3.115528385253629 -3.2911433316998386
upperneck 22.211998222823315 -3.834937639794546 1.730923816736553
head 9.698762744812806 -1.8526581520622996 0.7694150985286186
lclavicle -2.0274550957096803e-15 -7.123900673315416e-16
lhumerus -33.137851280505345 2.028297848549799 80.52976862713507
lradius 28.009555107804882
lwrist 8.114753378421275
lhand -29.732729815830382 19.928155038375362
lfingers 7.12502
lthumb -3.063221524430193 50.188648083121414
rclavicle -2.028285072292143e-15 -7.129005288177123e-16
rhumerus -29.743577866685797 -20.855047000049087 -76.13127731380531
rradius 20.944690012955792
rwrist 5.069770998072702
rhand -16.883332963447693 21.35647328924513
rfingers 7.12502
rthumb 8.50735479156333 -7.029129070456357
192
root 0.4282589230665637 17.82179628483093 64.29906751166467 -1.4234148978484313 -0.41658857690225104 -3.31547066666365
lfemur -13.317877564446354 -3.0139732489301423 -17.342725102170323
ltibia 26.34464436314872
lfoot 9.700049494488626 -10.910702118615564
ltoes -3.259583750355306
rfemur -14.875827489588422 3.9202765237707755 26.966088518286234
rtibia 34.4914369426391
rfoot -8.98802224593581 -10.820467381260631
rtoes 1.4641395177175698
lowerback 11.647932114844238 0.484664789960224 2.55194408745862
upperback 0.12724318942857396 1.3169577200386868 2.2497868493900093
thorax -6.283747069992352 0.6121227526849081 0.09583024720256739
lowerneck -16.331546451053576 -3.1052174835483495 -3.2945747860209442
upperneck 22.2265652594688 -3.811034125208456 1.6843820840415584
head 9.704395010302006 -1.8464162062312521 0.7620348471539822
lclavicle -2.0281575611398782e-15 -7.1283837965092605e-16
lhumerus -32.65400627658883 1.5228799121246772 80.61142825048304
lradius 28.593971791731278
lwrist 8.444170483739189
lhand -29.860631426464682 19.73435480971271
lfingers 7.12502
lthumb -3.17445525055243 50.00787623247242
rclavicle -2.0287533661339484e-15 -7.13199510075453e-16
rhumerus -29.81081874780186 -20.957925875631428 -76.06201287153647
rradius 20.84758246482556
rwrist 5.3649939239807125
rhand -16.927258230241048 21.312410125495326
rfingers 7.12502
rthumb 8.472824589321592 -7.015466318344852
193
root 0.43420644288612 17.834050010330586 64.22214566451922 -1.4009922537904818 -0.5408396640345672 -3.1990592112576657
lfemur -13.315834102621974 -3.0663191809108894 -17.40996794791231
ltibia 25.75857220677855
lfoot 8.990229121350955 -10.420757965329539
ltoes -2.7177745533107815
rfemur -14.39751813360009 4.174743351962215 26.81734791492088
rtibia 34.17212732244209
rfoot -9.13852086038799 -10.154941366765456
rtoes 1.0855075595426447
lowerback 11.559538908163516 0.5674195439441495 2.5178688890912264
upperback 0.11573463388726116 1.4029820074405588 2.186245848369484
thorax -6.241937351119659 0.6621410725020431 0.04847236807074351
lowerneck -16.368437197460544 -3.1011190081963824 -3.300427014548795
upperneck 22.23490947535563 -3.8037721154416664 1.6707661280330903
head 9.711391131748943 -1.8453464335827228 0.7584196642576888
lclavicle -2.0282949835379855e-15 -7.129254030684767e-16
lhumerus -32.19854031294171 1.2271941278897347 80.60970433420309
lradius 29.094442956936128
lwrist 8.483137521353184
lhand -29.920420784955 19.54180142300882
lfingers 7.12502
lthumb -3.2154412687753853 49.776781457172426
rclavicle -2.0281059735344377e-15 -7.127861188878552e-16
rhumerus -29.86753584024152 -21.099047071437177 -75.9988780468794
rradius 20.712775574273245
rwrist 5.460439707405118
rhand -16.95210649570908 21.31168521523944
rfingers 7.12502
rthumb 8.429906822687983 -7.040005939846803
194
root 0.44252986438128905 17.847564048452675 64.23291597493491 -1.3726866571764804 -0.6532886066895551 -3.1403490492371278
lfemur -13.18882485702516 -3.0169272092620325 -17.498153211877973
ltibia 25.419614862169148
lfoot 8.6251649968816 -9.804570486921547
ltoes -2.317197221916116
rfemur -13.91552407047863 4.301731799715448 26.750140792048647
rtibia 34.13710648735868
rfoot -9.079491988136821 -9.434648165068824
rtoes 0.9906594917961316
lowerback 11.430632604646469 0.6414439118581764 2.55272120798952
upperback 0.11635603598065697 1.4828570058814048 2.1330551074567294
thorax -6.157108718262552 0.7087481725042057 -0.0225819606450941
lowerneck -16.397486172017118 -3.0853765215906774 -3.3017201812202144
upperneck 22.25349624239534 -3.7753455638478313 1.6240522530085064
head 9.717302770916342 -1.8377808352305065 0.7496766628020117
lclavicle -2.028138589636506e-15 -7.128258878287387e-16
lhumerus -31.762973568031164 1.0377313206543417 80.63245708601266
lradius 29.49946861411653
lwrist 8.672305319628647
lhand -29.979355699175894 19.317432407790413
lfingers 7.12502
lthumb -3.217175183836337 49.65549674677677
rclavicle -2.0280690156319155e-15 -7.127625218775196e-16
rhumerus -29.89003991602002 -21.27965452280213 -75.9023595438407
rradius 20.495996946432186
rwrist 5.774708996974879
rhand -16.998665135270628 21.310975433093912
rfingers 7.12502
rthumb 8.33744446614577 -7.0750190630397425
